<?xml version="1.0" encoding="UTF-8" standalone="no"?>
<svg
   viewBox="0 0 1024 1024"
   version="1.1"
   id="svg16"
   sodipodi:docname="DNSToggle.svg"
   xml:space="preserve"
   inkscape:version="1.3.2 (091e20e, 2023-11-25)"
   inkscape:export-filename="../../Downloads/DNSToggle_16x16.png"
   inkscape:export-xdpi="1.5"
   inkscape:export-ydpi="1.5"
   xmlns:inkscape="http://www.inkscape.org/namespaces/inkscape"
   xmlns:sodipodi="http://sodipodi.sourceforge.net/DTD/sodipodi-0.dtd"
   xmlns:xlink="http://www.w3.org/1999/xlink"
   xmlns="http://www.w3.org/2000/svg"
   xmlns:svg="http://www.w3.org/2000/svg"
   xmlns:bx="https://boxy-svg.com"><sodipodi:namedview
     id="namedview16"
     pagecolor="#ffffff"
     bordercolor="#000000"
     borderopacity="0.25"
     inkscape:showpageshadow="false"
     inkscape:pageopacity="0.0"
     inkscape:pagecheckerboard="true"
     inkscape:deskcolor="#d1d1d1"
     inkscape:zoom="0.10559082"
     inkscape:cx="615.58382"
     inkscape:cy="686.61272"
     inkscape:current-layer="layer4" /><defs
     id="defs12"><linearGradient
       id="linearGradient54"
       inkscape:collect="always"><stop
         style="stop-color:#ffffff;stop-opacity:0.75;"
         offset="0"
         id="stop52" /><stop
         style="stop-color:#ffffff;stop-opacity:0;"
         offset="1"
         id="stop54" /></linearGradient><linearGradient
       id="linearGradient29"
       inkscape:collect="always"><stop
         style="stop-color:#b2f0fe;stop-opacity:1;"
         offset="0"
         id="stop30" /><stop
         style="stop-color:#3f6bd3;stop-opacity:1;"
         offset="0.49388379"
         id="stop32" /><stop
         style="stop-color:#061552;stop-opacity:1;"
         offset="1"
         id="stop31" /></linearGradient><linearGradient
       id="linearGradient28"
       inkscape:collect="always"><stop
         style="stop-color:#919191;stop-opacity:1;"
         offset="0"
         id="stop28" /><stop
         style="stop-color:#b2f0fe;stop-opacity:1;"
         offset="1"
         id="stop29" /></linearGradient><filter
       id="shadow"
       bx:pinned="true"
       x="0"
       y="0"
       width="1"
       height="1"><title
         id="title1">Drop Shadow</title><feDropShadow
         result="drop-shadow-0"
         in="SourceGraphic"
         style="flood-opacity: 0.3;"
         stdDeviation="10"
         dx="0"
         dy="10" /></filter><bx:guide
       x="-10"
       y="100"
       angle="90" /><bx:guide
       x="100"
       y="-10"
       angle="0" /><bx:guide
       x="924"
       y="-10"
       angle="0" /><bx:guide
       x="-10"
       y="924"
       angle="90" /><clipPath
       id="clip-0"><path
         style="stroke-width: 3px; fill: rgb(255, 255, 255);"
         d="M 100 724 L 100 300 C 100 185.001 170 99.995 300.026 100 L 724 99.995 C 854 100 924 185.001 924 300 L 924 724 C 924 839.001 854 923.995 724 924 L 300.026 924 C 170 924 100 839.001 100 724 Z"
         id="path2"><title
           id="title2">Icon Mask</title></path></clipPath><radialGradient
       inkscape:collect="always"
       xlink:href="#linearGradient28"
       id="radialGradient29"
       cx="512"
       cy="512.0025"
       fx="512"
       fy="512.0025"
       r="413.5"
       gradientTransform="matrix(1,0,0,1.000006,0,-0.00309554)"
       gradientUnits="userSpaceOnUse" /><radialGradient
       inkscape:collect="always"
       xlink:href="#linearGradient29"
       id="radialGradient31"
       cx="512"
       cy="678.79712"
       fx="512"
       fy="678.79712"
       r="413.5"
       gradientTransform="matrix(1.5465843,0,0,1.6882972,-279.85113,-392.92875)"
       gradientUnits="userSpaceOnUse" /><linearGradient
       inkscape:collect="always"
       xlink:href="#linearGradient54"
       id="linearGradient55"
       x1="517.19415"
       y1="100.00244"
       x2="517.19415"
       y2="606.04596"
       gradientUnits="userSpaceOnUse" /><filter
       inkscape:collect="always"
       style="color-interpolation-filters:sRGB"
       id="filter56"
       x="-0.108"
       y="-0.108"
       width="1.216"
       height="1.216"><feGaussianBlur
         inkscape:collect="always"
         stdDeviation="11.71977"
         id="feGaussianBlur56" /></filter><filter
       inkscape:collect="always"
       style="color-interpolation-filters:sRGB"
       id="filter57"
       x="-0.15888159"
       y="-0.090148312"
       width="1.3177632"
       height="1.1802966"><feGaussianBlur
         inkscape:collect="always"
         stdDeviation="19.204453"
         id="feGaussianBlur57" /></filter><clipPath
       clipPathUnits="userSpaceOnUse"
       id="clipPath62"><path
         style="display:inline;fill:#68ce64;fill-opacity:1;stroke:#808080;stroke-width:3px;stroke-opacity:1"
         d="m 100.00001,724.0025 v -424 c 0,-114.999 70,-200.005 200.026,-200 l 423.97398,-0.005 c 130,0.005 200,85.006 200,200.005 v 424 c 0,115.001 -70,199.995 -200,200 H 300.02601 c -130.026,0 -200.026,-84.999 -200.026,-200 z"
         id="path62"><title
           id="title62">Icon Grid Bounding Box</title></path></clipPath><clipPath
       clipPathUnits="userSpaceOnUse"
       id="clipPath63"><path
         style="display:inline;fill:#68ce64;fill-opacity:1;stroke:#808080;stroke-width:3px;stroke-opacity:1"
         d="M -90.793043,725.21462 18.946232,315.66207 C 48.710163,204.58157 138.32614,140.58941 263.92032,174.24744 l 409.52871,109.72771 c 125.56906,33.65131 171.18399,133.8733 141.42006,244.95381 L 705.12982,938.48151 C 675.36537,1049.5639 585.7525,1113.5445 460.18084,1079.9029 L 50.653427,970.17032 C -74.942045,936.51712 -120.55749,836.29706 -90.793043,725.21462 Z"
         id="path63"><title
           id="title63">Icon Grid Bounding Box</title></path></clipPath><clipPath
       clipPathUnits="userSpaceOnUse"
       id="clipPath64"><path
         style="display:inline;fill:#68ce64;fill-opacity:1;stroke:#808080;stroke-width:3px;stroke-opacity:1"
         d="m 100.00001,724.0025 v -424 c 0,-114.999 70,-200.005 200.026,-200 l 423.97398,-0.005 c 130,0.005 200,85.006 200,200.005 v 424 c 0,115.001 -70,199.995 -200,200 H 300.02601 c -130.026,0 -200.026,-84.999 -200.026,-200 z"
         id="path64"><title
           id="title64">Icon Grid Bounding Box</title></path></clipPath><clipPath
       clipPathUnits="userSpaceOnUse"
       id="clipPath65"><path
         style="display:inline;fill:#68ce64;fill-opacity:1;stroke:#808080;stroke-width:3px;stroke-opacity:1"
         d="m 100.00001,724.0025 v -424 c 0,-114.999 70,-200.005 200.026,-200 l 423.97398,-0.005 c 130,0.005 200,85.006 200,200.005 v 424 c 0,115.001 -70,199.995 -200,200 H 300.02601 c -130.026,0 -200.026,-84.999 -200.026,-200 z"
         id="path65"><title
           id="title65">Icon Grid Bounding Box</title></path></clipPath><clipPath
       clipPathUnits="userSpaceOnUse"
       id="clipPath66"><path
         style="display:inline;fill:#68ce64;fill-opacity:1;stroke:#808080;stroke-width:3px;stroke-opacity:1"
         d="m 100.00001,724.0025 v -424 c 0,-114.999 70,-200.005 200.026,-200 l 423.97398,-0.005 c 130,0.005 200,85.006 200,200.005 v 424 c 0,115.001 -70,199.995 -200,200 H 300.02601 c -130.026,0 -200.026,-84.999 -200.026,-200 z"
         id="path66"><title
           id="title66">Icon Grid Bounding Box</title></path></clipPath><clipPath
       clipPathUnits="userSpaceOnUse"
       id="clipPath67"><path
         style="display:inline;fill:#68ce64;fill-opacity:1;stroke:#808080;stroke-width:3px;stroke-opacity:1"
         d="m 100.00001,724.0025 v -424 c 0,-114.999 70,-200.005 200.026,-200 l 423.97398,-0.005 c 130,0.005 200,85.006 200,200.005 v 424 c 0,115.001 -70,199.995 -200,200 H 300.02601 c -130.026,0 -200.026,-84.999 -200.026,-200 z"
         id="path67"><title
           id="title67">Icon Grid Bounding Box</title></path></clipPath><clipPath
       clipPathUnits="userSpaceOnUse"
       id="clipPath68"><path
         style="display:inline;fill:#68ce64;fill-opacity:1;stroke:#808080;stroke-width:3px;stroke-opacity:1"
         d="m 100.00001,724.0025 v -424 c 0,-114.999 70,-200.005 200.026,-200 l 423.97398,-0.005 c 130,0.005 200,85.006 200,200.005 v 424 c 0,115.001 -70,199.995 -200,200 H 300.02601 c -130.026,0 -200.026,-84.999 -200.026,-200 z"
         id="path68"><title
           id="title68">Icon Grid Bounding Box</title></path></clipPath><clipPath
       clipPathUnits="userSpaceOnUse"
       id="clipPath69"><path
         style="display:inline;fill:#68ce64;fill-opacity:1;stroke:#808080;stroke-width:3px;stroke-opacity:1"
         d="m 100,724.0025 v -424 c 0,-114.999 70,-200.005 200.026,-200 L 724,99.9975 c 130,0.005 200,85.006 200,200.005 v 424 c 0,115.001 -70,199.995 -200,200 H 300.026 C 170,924.0025 100,839.0035 100,724.0025 Z"
         id="path69"><title
           id="title69">Icon Grid Bounding Box</title></path></clipPath><clipPath
       clipPathUnits="userSpaceOnUse"
       id="clipPath70"><path
         style="display:inline;fill:#68ce64;fill-opacity:1;stroke:#808080;stroke-width:3px;stroke-opacity:1"
         d="m 100,724.0025 v -424 c 0,-114.999 70,-200.005 200.026,-200 L 724,99.9975 c 130,0.005 200,85.006 200,200.005 v 424 c 0,115.001 -70,199.995 -200,200 H 300.026 C 170,924.0025 100,839.0035 100,724.0025 Z"
         id="path70"><title
           id="title70">Icon Grid Bounding Box</title></path></clipPath><clipPath
       clipPathUnits="userSpaceOnUse"
       id="clipPath71"><path
         style="display:inline;fill:#68ce64;fill-opacity:1;stroke:#808080;stroke-width:3px;stroke-opacity:1"
         d="m 100,724.0025 v -424 c 0,-114.999 70,-200.005 200.026,-200 L 724,99.9975 c 130,0.005 200,85.006 200,200.005 v 424 c 0,115.001 -70,199.995 -200,200 H 300.026 C 170,924.0025 100,839.0035 100,724.0025 Z"
         id="path71"><title
           id="title71">Icon Grid Bounding Box</title></path></clipPath></defs><g
     inkscape:groupmode="layer"
     id="layer1"
     inkscape:label="Template"
     sodipodi:insensitive="true"
     style="display:none"><title
       id="title13">App Icon (w/ Shadow)</title><title
       id="title14"
       clip-path="url(#clip-0)">Background (Masked)</title><path
       style="fill:#ffffff;stroke-width:3px;filter:url(#shadow)"
       d="M 100,724 V 300 C 100,185.001 170,99.995 300.026,100 L 724,99.995 C 854,100 924,185.001 924,300 v 424 c 0,115.001 -70,199.995 -200,200 H 300.026 C 170,924 100,839.001 100,724 Z"
       id="path15"
       clip-path="url(#clip-0)"><title
         id="title15">Icon Shape</title></path><rect
       x="683.90002"
       y="337.289"
       width="619.79901"
       height="80.511002"
       style="fill:#aebbbb;filter:url(#shadow)"
       transform="rotate(-64.5042,804.46415,588.45411)"
       id="rect15" /><title
       id="title17">App Icon Guides</title><title
       id="title18">App Icon Guides</title><path
       style="fill:none;stroke:#919191;stroke-width:3px"
       d="m 0,739.001 v -454 C 0,135.001 112,0 284.999,0 H 739.001 C 912,0 1024,135.001 1024,285.001 v 454 C 1024,889.001 912,1024 739.001,1024 H 284.999 C 112,1024 0,889.001 0,739.001 Z"
       id="path19"><title
         id="title19">Outer Bounding Box</title></path><path
       style="fill:none;stroke:#919191;stroke-width:3px"
       d="m 50,739.001 v -454 C 50,162 140,50 284.999,50 H 739.001 C 884.001,50 974,162 974,285.001 v 454 C 974,862 884.001,974 739.001,974 H 284.999 C 140,974 50,862 50,739.001 Z"
       id="path20"><title
         id="title20">Inner Bounding Box</title></path><path
       style="fill:none;stroke:#ff0000;stroke-width:3px"
       d="m 100,724.005 v -424 C 100,185.006 170,100 300.026,100.005 L 724,100 c 130,0.005 200,85.006 200,200.005 v 424 c 0,115.001 -70,199.995 -200,200 H 300.026 C 170,924.005 100,839.006 100,724.005 Z"
       id="path21"><title
         id="title21">Icon Grid Bounding Box</title></path><path
       style="fill:none;stroke:#ff0000"
       d="M 154.017,870.001 H 870.001 V 154.014 H 154.017 Z m 0,0 715.984,-715.987 z M 100,511.995 h 824 z m 0,157.365 H 924 Z M 924,354.631 H 100 Z M 669.365,99.995 v 824 z m -314.73,824 v -824 z M 512,99.995 v 824 z m -357.983,54.019 715.984,715.987 z"
       id="path22"><title
         id="title22">Icon Grid</title></path><circle
       style="fill:none"
       cx="512"
       cy="511.995"
       r="157.397"
       id="circle23"><title
         id="title23">Grid Circle 1</title></circle><circle
       style="fill:none"
       cx="512"
       cy="511.995"
       r="222.577"
       id="circle24"><title
         id="title24">Grid Circle 2</title></circle><circle
       style="fill:none"
       cx="512"
       cy="511.995"
       r="358.00101"
       id="circle25"><title
         id="title25">Grid Circle 3</title></circle><path
       d="m 1084.343,548.001 h -941 c -28.719,0 -52,-23.281 -52,-52 0,-28.719 23.281,-52 52,-52 h 941 c 28.719,0 52,23.281 52,52 0,28.719 -23.281,52 -52,52 z m 51.957,-51.962 -1045,-0.078"
       style="stroke:#0077ff;stroke-width:5px;stroke-dasharray:24, 10"
       transform="rotate(-64.504252,613.82126,496.00127)"
       id="path26"><title
         id="title26">Tool Angle</title></path><path
       style="fill:none;stroke:#ff0000;stroke-width:3px"
       d="m 100,724.005 v -424 C 100,185.006 170,100 300.026,100.005 L 724,100 c 130,0.005 200,85.006 200,200.005 v 424 c 0,115.001 -70,199.995 -200,200 H 300.026 C 170,924.005 100,839.006 100,724.005 Z"
       id="path27"><title
         id="title27">Icon Grid Bounding Box</title></path></g><g
     inkscape:groupmode="layer"
     id="layer2"
     inkscape:label="Base"
     style="display:inline"
     sodipodi:insensitive="true"><path
       style="display:inline;fill:url(#radialGradient31);stroke:#808080;stroke-width:3px;stroke-opacity:1"
       d="m 100,724.005 v -424 C 100,185.006 170,100 300.026,100.005 L 724,100 c 130,0.005 200,85.006 200,200.005 v 424 c 0,115.001 -70,199.995 -200,200 H 300.026 C 170,924.005 100,839.006 100,724.005 Z"
       id="path28"><title
         id="title28"
         style="fill:url(#radialGradient31);stroke:url(#radialGradient29)">Icon Grid Bounding Box</title></path></g><g
     inkscape:groupmode="layer"
     id="layer4"
     inkscape:label="Undernetworks"
     style="display:inline;opacity:0.5"><circle
       style="display:inline;fill:none;fill-opacity:1;stroke:#ffffff;stroke-width:15;stroke-dasharray:none;stroke-opacity:1"
       id="circle48"
       cx="46.394905"
       cy="865.03223"
       r="790.56146"
       clip-path="url(#clipPath71)" /><circle
       style="display:inline;fill:none;fill-opacity:1;stroke:#ffffff;stroke-width:15;stroke-dasharray:none;stroke-opacity:1"
       id="circle49"
       cx="986.34399"
       cy="978.67847"
       r="665.07703"
       clip-path="url(#clipPath70)" /><circle
       style="display:inline;fill:none;fill-opacity:1;stroke:#ffffff;stroke-width:15;stroke-dasharray:none;stroke-opacity:1"
       id="circle50"
       cx="538.86194"
       cy="17.420664"
       r="665.07703"
       clip-path="url(#clipPath69)" /><circle
       style="display:inline;fill:#ffffff;fill-opacity:1;stroke:none;stroke-width:15;stroke-dasharray:none;stroke-opacity:1"
       id="circle37-6"
       cx="677.90741"
       cy="389.44907"
       r="25.035595" /><circle
       style="display:inline;fill:#ffffff;fill-opacity:1;stroke:none;stroke-width:15;stroke-dasharray:none;stroke-opacity:1"
       id="circle51"
       cx="398.5502"
       cy="667.50983"
       r="30.978354" /><circle
       style="display:inline;fill:#ffffff;fill-opacity:1;stroke:none;stroke-width:15;stroke-dasharray:none;stroke-opacity:1"
       id="circle52"
       cx="800.81781"
       cy="628.74109"
       r="17.956388" /></g><g
     inkscape:groupmode="layer"
     id="layer3"
     inkscape:label="Overnetworks"
     style="display:inline"><circle
       style="display:inline;fill:none;fill-opacity:1;stroke:#ffffff;stroke-width:15;stroke-dasharray:none;stroke-opacity:1"
       id="path32"
       cx="942.55621"
       cy="681.38611"
       r="708.17279"
       clip-path="url(#clipPath68)" /><circle
       style="display:inline;fill:none;fill-opacity:1;stroke:#ffffff;stroke-width:15;stroke-dasharray:none;stroke-opacity:1"
       id="circle32"
       cx="986.08453"
       cy="791.04407"
       r="585.12146"
       clip-path="url(#clipPath67)" /><circle
       style="display:inline;fill:none;fill-opacity:1;stroke:#ffffff;stroke-width:15;stroke-dasharray:none;stroke-opacity:1"
       id="circle33"
       cx="877.26373"
       cy="1036.3096"
       r="423.56433"
       clip-path="url(#clipPath66)" /><circle
       style="display:inline;fill:none;fill-opacity:1;stroke:#ffffff;stroke-width:15;stroke-dasharray:none;stroke-opacity:1"
       id="circle34"
       cx="171.60226"
       cy="578.4248"
       r="626.97565"
       clip-path="url(#clipPath65)" /><circle
       style="display:inline;fill:none;fill-opacity:1;stroke:#ffffff;stroke-width:15;stroke-dasharray:none;stroke-opacity:1"
       id="circle35"
       cx="210.94519"
       cy="-33.483341"
       r="472.11517"
       clip-path="url(#clipPath64)" /><circle
       style="display:inline;fill:none;fill-opacity:1;stroke:#ffffff;stroke-width:15;stroke-dasharray:none;stroke-opacity:1"
       id="circle36"
       cx="342.63071"
       cy="-582.6073"
       r="1241.595"
       transform="rotate(-15)"
       clip-path="url(#clipPath63)" /><circle
       style="display:inline;fill:none;fill-opacity:1;stroke:#ffffff;stroke-width:14.9999;stroke-dasharray:none;stroke-opacity:1"
       id="circle43"
       cx="-323.6402"
       cy="916.60657"
       r="914.93237"
       clip-path="url(#clipPath62)" /><circle
       style="display:inline;fill:#ffffff;fill-opacity:1;stroke:none;stroke-width:15;stroke-dasharray:none;stroke-opacity:1"
       id="path36"
       cx="279.12857"
       cy="433.65149"
       r="41.017097" /><circle
       style="display:inline;fill:#ffffff;fill-opacity:1;stroke:none;stroke-width:15;stroke-dasharray:none;stroke-opacity:1"
       id="circle37"
       cx="240.47983"
       cy="588.66376"
       r="25.035595" /><circle
       style="display:inline;fill:#ffffff;fill-opacity:1;stroke:none;stroke-width:14.9999;stroke-dasharray:none;stroke-opacity:1"
       id="circle38"
       cx="448.14777"
       cy="560.84595"
       r="29.770855" /><circle
       style="display:inline;fill:#ffffff;fill-opacity:1;stroke:none;stroke-width:14.9999;stroke-dasharray:none;stroke-opacity:1"
       id="circle39"
       cx="797.15417"
       cy="620.38983"
       r="21.48415" /><circle
       style="display:inline;fill:#ffffff;fill-opacity:1;stroke:none;stroke-width:14.9999;stroke-dasharray:none;stroke-opacity:1"
       id="circle40"
       cx="717.99884"
       cy="270.95065"
       r="35.098022" /><circle
       style="display:inline;fill:#ffffff;fill-opacity:1;stroke:none;stroke-width:14.9999;stroke-dasharray:none;stroke-opacity:1"
       id="circle41"
       cx="781.8645"
       cy="434.62473"
       r="27.403225" /><circle
       style="display:inline;fill:#ffffff;fill-opacity:1;stroke:none;stroke-width:14.9999;stroke-dasharray:none;stroke-opacity:1"
       id="circle42"
       cx="640.57098"
       cy="162.29167"
       r="21.48415" /><circle
       style="display:inline;fill:#ffffff;fill-opacity:1;stroke:none;stroke-width:14.9999;stroke-dasharray:none;stroke-opacity:1"
       id="circle44"
       cx="574.14575"
       cy="740.46124"
       r="27.995111" /><circle
       style="display:inline;fill:#ffffff;fill-opacity:1;stroke:none;stroke-width:14.9999;stroke-dasharray:none;stroke-opacity:1"
       id="circle45"
       cx="485.07816"
       cy="488.78635"
       r="19.116499" /><circle
       style="display:inline;fill:#ffffff;fill-opacity:1;stroke:none;stroke-width:14.9999;stroke-dasharray:none;stroke-opacity:1"
       id="circle46"
       cx="512.36053"
       cy="544.89496"
       r="24.443666" /><circle
       style="display:inline;fill:#ffffff;fill-opacity:1;stroke:none;stroke-width:15.0001;stroke-dasharray:none;stroke-opacity:1"
       id="circle47"
       cx="348.49841"
       cy="295.8942"
       r="33.914207" /></g><g
     inkscape:groupmode="layer"
     id="layer5"
     inkscape:label="Gloss"
     style="display:inline"
     sodipodi:insensitive="true"><path
       id="path28-0"
       style="display:inline;fill:url(#linearGradient55);stroke:none;stroke-width:3px;stroke-opacity:1"
       d="m 715.48633,110.00195 c -139.35011,-2.4e-4 -278.70032,-0.004 -418.05035,0.0272 -10.12176,0.098 -20.18449,0.70765 -30.20069,1.98001 -5.88434,0.74796 -11.97516,1.74756 -17.88023,2.98489 -4.58347,0.95374 -9.1678,2.07334 -13.61527,3.32244 -15.52979,4.34047 -30.72974,10.68498 -44.56875,19.13444 -13.7301,8.32373 -26.19467,18.736 -36.76121,30.82936 -11.34315,12.92744 -20.49566,27.72063 -27.33952,43.48529 -0.84376,1.93058 -1.71843,4.05948 -2.52343,6.0879 -1.48283,3.79534 -2.89272,7.71845 -4.15213,11.66257 -0.99356,3.11982 -1.86944,6.09829 -2.72193,9.27976 -0.80649,3.01815 -1.53733,6.05605 -2.2197,9.10454 -0.25647,1.24773 -0.5914,2.7284 -0.84828,4.07322 -2.01341,9.99558 -3.32002,20.1839 -4.00211,30.27316 -0.137,1.93903 -0.23065,4.0475 -0.33125,5.88409 -0.36597,8.85093 -0.23148,17.71191 -0.27114,26.56797 0.006,116.35168 -0.0107,232.70338 0.0137,349.05508 0.0126,21.28363 -0.015,42.56761 0.0227,63.85104 0.34726,26.35825 4.58905,52.83385 14.09549,77.48894 4.0493,10.48339 9.05073,20.60603 15.02019,30.13072 0.97781,1.53832 2.0758,3.2507 3.15013,4.82321 10.57964,15.656 23.98673,29.39989 39.41628,40.31156 1.13684,0.79536 2.42303,1.6902 3.59197,2.46696 17.52416,11.71524 37.29423,19.87649 57.76178,24.77754 5.80054,1.40716 11.85542,2.58046 17.76429,3.49538 5.94884,0.91813 11.93492,1.60769 17.97873,2.08116 4.10119,0.32547 8.16099,0.54212 12.31745,0.67129 6.00258,0.19969 12.18969,0.13987 18.26547,0.14654 139.13317,0.008 278.26646,0.0118 417.39957,-0.0187 11.61068,-0.12272 23.22201,-0.93489 34.71176,-2.6299 1.43694,-0.20877 2.97826,-0.45911 4.41601,-0.69336 14.66715,-2.44255 29.1055,-6.37431 42.87891,-11.99609 0.87124,-0.36616 1.99927,-0.82928 2.96596,-1.24847 7.63618,-3.29054 15.03745,-7.12717 22.11412,-11.49372 0.73459,-0.47239 1.72157,-1.07697 2.54823,-1.61143 4.49774,-2.90024 8.85835,-6.02271 13.00531,-9.3288 1.97826,-1.57816 3.88879,-3.17421 5.74641,-4.80973 12.01019,-10.55614 22.36743,-22.97001 30.702,-36.61137 0.41138,-0.70043 0.97197,-1.6056 1.38865,-2.32251 12.48403,-21.21543 20.21732,-45.02165 23.90832,-69.3034 0.92552,-5.99355 1.59372,-12.02535 2.0624,-18.07135 0.1337,-1.79627 0.26931,-3.75042 0.36374,-5.55545 0.47607,-8.76673 0.37404,-17.55119 0.39334,-26.32736 -0.009,-138.3238 -0.003,-276.6477 -0.0299,-414.97146 -0.25806,-22.5034 -3.32682,-45.22068 -10.14796,-66.77618 -7.8323,-24.96151 -20.93705,-48.4531 -39.16375,-67.32015 -15.88567,-16.57078 -35.50553,-29.41971 -56.79291,-37.93299 -7.03707,-2.84124 -14.25462,-5.22608 -21.57762,-7.21407 -1.29912,-0.34321 -2.83207,-0.75044 -4.22854,-1.08908 -5.48534,-1.36262 -11.08201,-2.48545 -16.59394,-3.40156 -8.12209,-1.34039 -16.20971,-2.20888 -24.4356,-2.74359 -2.36766,-0.15042 -4.96535,-0.27717 -7.42668,-0.3511 -6.03783,-0.1978 -12.07969,-0.18191 -18.11993,-0.17444 z"><title
         id="title28-6"
         style="fill:url(#linearGradient55)">Icon Grid Bounding Box</title></path></g><g
     inkscape:groupmode="layer"
     id="layer6"
     inkscape:label="Switch"
     sodipodi:insensitive="true"
     style="display:inline"><path
       id="circle55"
       style="fill:#68ce64;fill-opacity:1;stroke:none;stroke-width:6;stroke-dasharray:none;stroke-opacity:1"
       d="m 518,235.58008 c -85.32085,-2.3e-4 -154.48743,69.16548 -154.48828,154.48633 V 625.64648 C 363.51149,710.9681 432.67838,780.135 518,780.13477 603.32162,780.135 672.48851,710.9681 672.48828,625.64648 V 390.06641 C 672.48743,304.74556 603.32085,235.57985 518,235.58008 Z"
       sodipodi:nodetypes="ccccccc" /><circle
       style="mix-blend-mode:normal;fill:#000000;fill-opacity:0.5;stroke:none;stroke-width:15;stroke-dasharray:none;stroke-opacity:1;filter:url(#filter56)"
       id="path55"
       cx="516.73529"
       cy="387.10757"
       r="130.21967" /><circle
       style="fill:#f9f9f9;fill-opacity:1;stroke:none;stroke-width:15;stroke-dasharray:none;stroke-opacity:1"
       id="circle56"
       cx="516.73529"
       cy="387.10757"
       r="130.21967" /><path
       id="path56"
       style="fill:none;fill-opacity:1;stroke:#000000;stroke-width:6;stroke-dasharray:none;stroke-opacity:1;filter:url(#filter57)"
       d="m 518,235.58008 c -85.32085,-2.3e-4 -154.48743,69.16548 -154.48828,154.48633 V 625.64648 C 363.51149,710.9681 432.67838,780.135 518,780.13477 603.32162,780.135 672.48851,710.9681 672.48828,625.64648 V 390.06641 C 672.48743,304.74556 603.32085,235.57985 518,235.58008 Z"
       sodipodi:nodetypes="ccccccc"
       mask="none" /></g></svg>
